<?xml version="1.0" encoding="utf-8"?>
<!-- Svg Vector Icons : http://www.onlinewebfonts.com/icon -->
<!DOCTYPE svg PUBLIC "-//W3C//DTD SVG 1.1//EN" "http://www.w3.org/Graphics/SVG/1.1/DTD/svg11.dtd">
<svg version="1.1" xmlns="http://www.w3.org/2000/svg" xmlns:xlink="http://www.w3.org/1999/xlink" x="0px" y="0px" viewBox="0 0 1000 1000" enable-background="new 0 0 1000 1000" xml:space="preserve">
<metadata> Svg Vector Icons : http://www.onlinewebfonts.com/icon </metadata>
<g><g transform="translate(0.000000,511.000000) scale(0.100000,-0.100000)"><path d="M4799,1499.8c-40.2-15.3-109.2-53.6-153.2-86.2l-78.5-57.5h-329.5c-182,0-344.8-5.7-362-11.5c-17.2-7.7-82.4-118.8-143.7-249l-113-237.5H2527.3H1433.5v295c0,318-11.5,356.3-103.4,356.3c-80.5,0-88.1-28.7-88.1-346.7V860l-90-11.5c-139.8-21.1-247.1-74.7-281.6-141.7c-72.8-137.9-9.6-482.7,114.9-647.5c63.2-82.4,197.3-147.5,273.9-130.3c74.7,15.3,122.6,72.8,195.4,229.9c32.6,74.7,90,201.1,128.3,281.6c113,247.1-26.8,224.1,1268.1,220.3l1120.6-3.8l63.2-237.5L4098,180l-61.3-153.2c-91.9-231.8-126.4-469.3-99.6-660.8c26.8-176.2,105.4-379.3,216.4-551.7c76.6-120.7,134.1-155.1,134.1-80.4c0,23-49.8,183.9-109.2,360.1l-111.1,318v239.4c0,205,5.7,254.8,44.1,350.5l44.1,109.2h840.9h840.9l44.1-109.2c38.3-95.8,44.1-145.6,44.1-350.5v-239.4l-111.1-318c-113-331.4-128.3-400.3-82.4-400.3c26.8,0,132.2,147.5,199.2,279.7c168.6,331.4,172.4,722.1,9.6,1084.2l-49.8,111.1l53.6,206.9c28.7,113,59.4,224.1,68.9,245.2l15.3,42.1h1118.6l1120.6,1.9l38.3-42.1c44-49.8,128.3-216.4,206.9-411.8c103.4-260.5,210.7-331.4,371.6-249c147.5,76.6,247.1,272,262.4,524.9c17.2,243.3-53.6,325.6-304.6,362l-91.9,11.5v304.6c0,281.6-1.9,306.5-36.4,325.6c-51.7,26.8-90,24.9-124.5-11.5c-24.9-24.9-30.6-82.4-30.6-325.6v-295H7465.4H6373.6l-113,237.5c-61.3,130.2-126.4,241.3-143.7,249c-17.2,5.7-180.1,11.5-362,11.5h-329.5l-78.5,57.5c-42.1,32.6-114.9,70.9-159,86.2C5086.4,1536.2,4896.7,1534.3,4799,1499.8z"/><path d="M385.7,1277.6c-105.4-19.2-237.5-78.5-272-118.8c-34.5-42.1-3.8-80.5,90-111.1c99.6-34.5,459.7-28.7,653.2,9.6c88.1,17.2,197.3,30.6,243.3,30.6h84.3v82.4v84.3l-180.1,21.1C799.5,1300.6,506.4,1302.5,385.7,1277.6z"/><path d="M1816.6,1260.4c-111.1-21.1-229.9-36.4-262.4-36.4c-61.3-1.9-63.2-5.8-63.2-76.6c0-47.9,9.6-78.5,28.7-86.2c15.3-5.8,137.9-19.2,272-32.6c283.5-24.9,501.9-5.7,657,61.3c126.4,53.6,149.4,84.3,105.4,132.2C2479.4,1304.4,2161.4,1319.8,1816.6,1260.4z"/><path d="M7653.1,1264.2c-136-36.4-233.7-95.8-233.7-139.8c0-15.3,34.5-44.1,76.6-65.1c63.2-30.6,114.9-36.4,306.5-34.5c126.4,0,298.8,15.3,383.1,32.6c84.3,17.2,189.6,30.6,235.6,30.6h80.5v84.3v82.4l-80.5,13.4c-46,7.7-206.9,17.2-360.1,21.1C7831.3,1296.8,7760.4,1292.9,7653.1,1264.2z"/><path d="M9133.8,1260.4c-111.1-19.2-229.9-36.4-262.4-36.4c-61.3-1.9-63.2-5.8-63.2-76.6c0-61.3,7.7-76.6,44.1-84.3c105.4-26.8,492.3-53.6,607.2-42.1c235.6,23,440.6,103.4,440.6,174.3C9900,1289.1,9482.4,1323.6,9133.8,1260.4z"/></g></g>
</svg>